<svg id="_404" data-name="404" xmlns="http://www.w3.org/2000/svg" xmlns:xlink="http://www.w3.org/1999/xlink" viewBox="0 0 1979.31 1143.61"><defs><style>.cls-1{fill:#c5403f;}.cls-2{fill:#3cc5f0;}.cls-3{fill:#172c59;}.cls-4{fill:#f1f2f2;}.cls-5{fill:#7fd3f4;}.cls-6{clip-path:url(#clip-path);}.cls-7{fill:#ea8088;}.cls-8{clip-path:url(#clip-path-2);}.cls-9{fill:#fff;}.cls-10{clip-path:url(#clip-path-3);}.cls-11{clip-path:url(#clip-path-4);}.cls-12{fill:#d1d3d4;}.cls-13{fill:#f7941d;}</style><clipPath id="clip-path" transform="translate(-560.91 -442.33)"><circle class="cls-1" cx="864.64" cy="636.9" r="36.99" transform="translate(-12.78 1256.08) rotate(-71.59)"/></clipPath><clipPath id="clip-path-2" transform="translate(-560.91 -442.33)"><circle class="cls-1" cx="978.26" cy="636.9" r="36.99" transform="translate(-163.83 878.28) rotate(-45)"/></clipPath><clipPath id="clip-path-3" transform="translate(-560.91 -442.33)"><rect class="cls-2" x="798.37" y="771.87" width="246.16" height="345.78" rx="21.38"/></clipPath><clipPath id="clip-path-4" transform="translate(-560.91 -442.33)"><path class="cls-3" d="M842.4,771.87H995a0,0,0,0,1,0,0v122a76.28,76.28,0,0,1-76.28,76.28h0a76.28,76.28,0,0,1-76.28-76.28v-122A0,0,0,0,1,842.4,771.87Z"/></clipPath></defs><title>Na_June_69 [Converted]</title><ellipse class="cls-4" cx="360.54" cy="1116.43" rx="281.14" ry="27.18"/><path class="cls-4" d="M1507,614.27c-48.11,21.88-95.22,46.46-142.42,68.78-133.78,63.28-273.84,89.68-418.65,115.51C831.67,818.94,705.68,851.79,642,957.86c-68.44,114-3.2,273.58,85.06,358.26,138,132.35,342.78,161,526.06,144.19,240.21-22.08,506-97.27,705.72-236.06,144-100,198.6-255.54,141.18-422.66-55-160-202-261-371.45-250.56C1650.29,555.88,1577.57,582.17,1507,614.27Z" transform="translate(-560.91 -442.33)"/><rect class="cls-1" x="316.01" y="300.11" width="86.53" height="29.43"/><rect class="cls-5" x="233.74" y="125.04" width="253.61" height="175.07" rx="18.09"/><circle class="cls-3" cx="864.64" cy="636.9" r="42.71" transform="translate(-617.58 746.33) rotate(-67.29)"/><circle class="cls-1" cx="864.64" cy="636.9" r="36.99" transform="translate(-573.68 813.76) rotate(-71.59)"/><g class="cls-6"><rect class="cls-7" x="302.19" y="151.97" width="22.87" height="85.21"/><rect class="cls-7" x="284.7" y="151.97" width="12.58" height="85.21"/></g><circle class="cls-3" cx="978.26" cy="636.9" r="42.71" transform="translate(-518.55 892.23) rotate(-69.77)"/><circle class="cls-1" cx="978.26" cy="636.9" r="36.99" transform="translate(-724.74 435.95) rotate(-45)"/><g class="cls-8"><rect class="cls-7" x="394.9" y="151.89" width="19.61" height="91.59"/><rect class="cls-7" x="419.1" y="152.81" width="8.37" height="91.59"/><rect class="cls-7" x="430.6" y="152.89" width="8.37" height="91.59"/></g><rect class="cls-9" x="306.57" y="253.41" width="107.94" height="30.14" rx="5.73"/><rect class="cls-3" x="316.01" y="253.41" width="5.07" height="30.14"/><rect class="cls-3" x="328.01" y="253.41" width="5.07" height="30.14"/><rect class="cls-3" x="340.01" y="253.41" width="5.07" height="30.14"/><rect class="cls-3" x="352.01" y="253.41" width="5.07" height="30.14"/><rect class="cls-3" x="364.01" y="253.41" width="5.07" height="30.14"/><rect class="cls-3" x="376.01" y="253.41" width="5.07" height="30.14"/><rect class="cls-3" x="388.01" y="253.41" width="5.07" height="30.14"/><rect class="cls-3" x="400.01" y="253.41" width="5.07" height="30.14"/><rect class="cls-2" x="283.55" y="106.05" width="153.99" height="18.99"/><rect class="cls-3" x="208.19" y="157.58" width="25.55" height="103.72"/><rect class="cls-3" x="487.34" y="160.72" width="25.55" height="103.72"/><rect class="cls-2" x="237.46" y="329.54" width="246.16" height="345.78" rx="21.38"/><g class="cls-10"><rect class="cls-5" x="223.67" y="611.81" width="273.36" height="89.55"/></g><path class="cls-3" d="M281.49,329.54H434a0,0,0,0,1,0,0v122a76.28,76.28,0,0,1-76.28,76.28h0a76.28,76.28,0,0,1-76.28-76.28v-122A0,0,0,0,1,281.49,329.54Z"/><g class="cls-11"><rect class="cls-12" x="315.07" y="384.65" width="12" height="69.29"/><rect class="cls-12" x="339.07" y="384.65" width="12" height="69.29"/><rect class="cls-12" x="363.08" y="384.65" width="12" height="69.29"/><rect class="cls-12" x="387.08" y="384.65" width="12" height="69.29"/></g><rect class="cls-3" x="266.74" y="675.33" width="39.83" height="315.75"/><rect class="cls-3" x="414.13" y="675.33" width="39.83" height="315.75"/><circle class="cls-2" cx="847.56" cy="1261.78" r="35.14" transform="translate(-971.87 -32.94) rotate(-22)"/><circle class="cls-2" cx="994.95" cy="1265.95" r="35.14" transform="translate(-1125.1 421.59) rotate(-37.38)"/><path class="cls-2" d="M867.48,1558.75h-82.9l24.24-109.12A20.7,20.7,0,0,1,829,1433.41h38.44Z" transform="translate(-560.91 -442.33)"/><path class="cls-3" d="M867.48,1558.75h-101a38.53,38.53,0,0,1,38.53-38.52h62.43Z" transform="translate(-560.91 -442.33)"/><rect class="cls-12" x="225.49" y="1100.35" width="14.07" height="16.07"/><rect class="cls-12" x="248.5" y="1100.35" width="14.07" height="16.07"/><rect class="cls-12" x="270.19" y="1100.35" width="14.07" height="16.07"/><path class="cls-2" d="M975,1558.75h82.9l-24.24-109.12a20.71,20.71,0,0,0-20.22-16.22H975Z" transform="translate(-560.91 -442.33)"/><path class="cls-3" d="M975,1558.75h101a38.53,38.53,0,0,0-38.52-38.52H975Z" transform="translate(-560.91 -442.33)"/><rect class="cls-12" x="1042.05" y="1542.68" width="14.07" height="16.07" transform="translate(1537.26 2659.11) rotate(180)"/><rect class="cls-12" x="1019.03" y="1542.68" width="14.07" height="16.07" transform="translate(1491.23 2659.11) rotate(180)"/><rect class="cls-12" x="997.34" y="1542.68" width="14.07" height="16.07" transform="translate(1447.85 2659.11) rotate(180)"/><rect class="cls-12" x="279.26" y="885.41" width="14.79" height="105.67"/><rect class="cls-12" x="426.65" y="885.41" width="14.79" height="105.67"/><rect class="cls-12" x="279.45" y="675.33" width="14.79" height="21.15"/><rect class="cls-12" x="426.84" y="675.33" width="14.79" height="21.15"/><polygon class="cls-3" points="237.46 348.43 208.19 348.43 167.9 348.43 167.9 418.79 167.9 419.29 181.66 419.29 181.66 567.84 194.43 567.03 194.43 419.29 237.46 419.29 237.46 348.43"/><rect class="cls-12" x="181.66" y="394.38" width="12.77" height="24.91"/><circle class="cls-2" cx="187.44" cy="574.49" r="19.54"/><polygon class="cls-3" points="483.62 348.43 512.9 348.43 553.18 348.43 553.18 418.79 553.18 419.29 539.43 419.29 539.43 567.84 526.65 567.03 526.65 419.29 483.62 419.29 483.62 348.43"/><rect class="cls-12" x="1087.56" y="836.71" width="12.77" height="24.91" transform="translate(1626.99 1256) rotate(180)"/><circle class="cls-2" cx="533.65" cy="574.49" r="19.54"/><path class="cls-12" d="M717.41,970.93l369.16,108.57a89.35,89.35,0,0,0,165.7,42.11l-57,1.28a38.33,38.33,0,0,1-38.75-32.49h0a38.34,38.34,0,0,1,36.68-44.16l66.31-2.09a89.34,89.34,0,0,0-156.5-20.52L733.84,915.07A89.35,89.35,0,0,0,568.14,873l57-1.28a38.34,38.34,0,0,1,38.75,32.49h0a38.33,38.33,0,0,1-36.68,44.16l-66.31,2.09a89.34,89.34,0,0,0,156.5,20.52Z" transform="translate(-560.91 -442.33)"/><path class="cls-9" d="M758.25,952.6h0a12.23,12.23,0,0,1,15.19-8.29l262,77a12.25,12.25,0,0,1,8.29,15.19h0a12.24,12.24,0,0,1-15.19,8.29l-262-77A12.23,12.23,0,0,1,758.25,952.6Z" transform="translate(-560.91 -442.33)"/><path class="cls-3" d="M822,907.86h0A19.81,19.81,0,0,0,795.92,918l-19.46,44.34,9.34,4.1-39,44.49a6.38,6.38,0,0,0,.59,9h0a6.37,6.37,0,0,0,9-.59l41.69-47.52,14.67,6.44L832.2,934A19.81,19.81,0,0,0,822,907.86Z" transform="translate(-560.91 -442.33)"/><polygon class="cls-2" points="215.55 520.05 251.83 535.98 256.51 525.3 220.44 508.91 215.55 520.05"/><line class="cls-2" x1="503.07" y1="581.17" x2="489.78" y2="582.87"/><path class="cls-3" d="M1082.22,1073.08l-32.7,3-3.63-39.41a16.42,16.42,0,0,1,14.85-17.85h0a16.42,16.42,0,0,1,17.86,14.84Z" transform="translate(-560.91 -442.33)"/><rect class="cls-2" x="1049.01" y="1064.94" width="32.84" height="9.66" transform="translate(-654.38 -340.29) rotate(-5.25)"/><path class="cls-3" d="M1067.22,1089.26h0a6.68,6.68,0,0,1-7.27-6l-.74-8,13.31-1.22.74,8A6.68,6.68,0,0,1,1067.22,1089.26Z" transform="translate(-560.91 -442.33)"/><rect class="cls-3" x="352.01" y="30.11" width="14.53" height="75.94"/><circle class="cls-1" cx="359.06" cy="22.02" r="22.02"/><circle class="cls-7" cx="924.92" cy="457.3" r="12" transform="translate(-292.6 810.87) rotate(-76.79)"/><rect class="cls-7" x="220.96" y="171.39" width="12.78" height="12.78"/><rect class="cls-7" x="220.96" y="192.5" width="12.78" height="12.78"/><rect class="cls-7" x="220.96" y="213.61" width="12.78" height="12.78"/><rect class="cls-7" x="220.96" y="234.72" width="12.78" height="12.78"/><rect class="cls-7" x="487.25" y="174.53" width="12.78" height="12.78"/><rect class="cls-7" x="487.25" y="195.64" width="12.78" height="12.78"/><rect class="cls-7" x="487.25" y="216.75" width="12.78" height="12.78"/><rect class="cls-7" x="487.25" y="237.85" width="12.78" height="12.78"/><polygon class="cls-13" points="563.03 283.55 638.52 182.5 641.16 237.85 725.89 180.92 621.97 291.04 623.31 231.56 563.03 283.55"/><polygon class="cls-13" points="173.57 685.9 33.83 819.45 113.04 794.53 27.99 914.73 202.68 752.45 141.02 758.28 173.57 685.9"/><polygon class="cls-13" points="167.9 311.27 141.61 215.28 121.17 249.64 83.09 183.72 112.81 308.14 134.18 265.43 167.9 311.27"/><polygon class="cls-13" points="505.82 746.62 523.08 809.62 536.48 787.06 561.47 830.33 541.97 748.67 527.95 776.7 505.82 746.62"/><path class="cls-3" d="M1682.52,871.47c0,106.72-64.86,163.3-144,163.3-81.88,0-139.38-63.48-139.38-157.32,0-98.44,61.18-162.84,144-162.84C1627.78,714.61,1682.52,779.47,1682.52,871.47Zm-240.58,5.06c0,66.24,35.88,125.58,98.9,125.58,63.48,0,99.36-58.42,99.36-128.8,0-61.64-32.2-126-98.9-126C1475.06,747.27,1441.94,808.45,1441.94,876.53Z" transform="translate(-560.91 -442.33)"/><path class="cls-3" d="M1936.44,916.55c0,82.34-57,118.22-110.87,118.22-60.26,0-106.72-44.16-106.72-114.54,0-74.52,48.76-118.22,110.4-118.22C1893.2,802,1936.44,848.47,1936.44,916.55Zm-176.65,2.3c0,48.76,28.06,85.56,67.62,85.56,38.64,0,67.63-36.34,67.63-86.48,0-37.72-18.87-85.56-66.71-85.56S1759.79,876.53,1759.79,918.85Z" transform="translate(-560.91 -442.33)"/><path class="cls-3" d="M1987.49,879.75c0-28.52-.92-51.52-1.84-72.68H2022l1.84,38.18h.92c16.56-27.14,42.78-43.24,79.12-43.24,53.82,0,94.3,45.54,94.3,113.16,0,80-48.76,119.6-101.2,119.6-29.44,0-55.2-12.88-68.54-35h-.92v121h-40Zm40,59.34a91.15,91.15,0,0,0,1.84,16.56c7.36,28.06,31.74,47.38,60.72,47.38,42.78,0,67.62-35,67.62-86,0-44.62-23.46-82.8-66.24-82.8-27.6,0-53.36,19.78-61.18,50.14-1.38,5.06-2.76,11-2.76,16.56Z" transform="translate(-560.91 -442.33)"/><path class="cls-3" d="M2243.7,988.31c12,7.82,33.12,16.1,53.36,16.1,29.44,0,43.25-14.72,43.25-33.12,0-19.32-11.5-29.9-41.41-40.94-40-14.26-58.88-36.34-58.88-63,0-35.88,29-65.32,76.82-65.32,22.55,0,42.33,6.44,54.75,13.8l-10.12,29.44a86.69,86.69,0,0,0-45.55-12.88c-23.92,0-37.26,13.8-37.26,30.36,0,18.4,13.34,26.68,42.33,37.72,38.64,14.72,58.42,34,58.42,67.16,0,39.1-30.36,66.7-83.27,66.7-24.38,0-46.92-6-62.56-15.18Z" transform="translate(-560.91 -442.33)"/><path class="cls-3" d="M2423.56,1006.25c0-16.56,11.5-28.52,27.14-28.52,16.56,0,27.14,12,27.14,28.52,0,16.1-10.58,28.52-27.14,28.52C2434.6,1034.77,2423.56,1022.35,2423.56,1006.25Zm11.5-65.78-6.44-220.8h44.16l-6.44,220.8Z" transform="translate(-560.91 -442.33)"/><path class="cls-3" d="M1395.06,1229.37a35.44,35.44,0,0,0,17.94,5.06c10.24,0,16.22-5.41,16.22-13.23,0-7.24-4.14-11.38-14.61-15.41-12.65-4.48-20.47-11-20.47-22,0-12.08,10-21,25.07-21,7.94,0,13.69,1.84,17.14,3.8l-2.76,8.16a30.89,30.89,0,0,0-14.72-3.68c-10.59,0-14.61,6.33-14.61,11.62,0,7.24,4.71,10.81,15.41,15,13.11,5.06,19.78,11.38,19.78,22.77,0,12-8.85,22.31-27.14,22.31-7.48,0-15.64-2.19-19.78-5Z" transform="translate(-560.91 -442.33)"/><path class="cls-3" d="M1503.85,1213.27c0,20.58-14.26,29.56-27.72,29.56-15.06,0-26.68-11-26.68-28.64,0-18.63,12.19-29.56,27.6-29.56C1493,1184.63,1503.85,1196.25,1503.85,1213.27Zm-44.16.57c0,12.19,7,21.39,16.9,21.39,9.66,0,16.91-9.08,16.91-21.62,0-9.43-4.72-21.39-16.68-21.39S1459.69,1203.26,1459.69,1213.84Z" transform="translate(-560.91 -442.33)"/><path class="cls-3" d="M1516.61,1201c0-5.75-.11-10.46-.46-15.06H1525l.46,9h.34c3.11-5.29,8.28-10.24,17.48-10.24a16.46,16.46,0,0,1,15.76,11.16h.23a22.89,22.89,0,0,1,6.21-7.25,19,19,0,0,1,12.3-3.91c7.37,0,18.29,4.83,18.29,24.15v32.78h-9.89v-31.51c0-10.7-3.91-17.14-12.07-17.14-5.76,0-10.24,4.26-12,9.2a16.67,16.67,0,0,0-.8,5.06v34.39h-9.89v-33.35c0-8.86-3.91-15.3-11.62-15.3-6.32,0-10.92,5.06-12.53,10.12a13.87,13.87,0,0,0-.81,5v33.58h-9.89Z" transform="translate(-560.91 -442.33)"/><path class="cls-3" d="M1618.16,1215.57c.23,13.68,9,19.32,19.09,19.32a36.62,36.62,0,0,0,15.41-2.88l1.72,7.25c-3.56,1.61-9.66,3.45-18.51,3.45-17.14,0-27.37-11.27-27.37-28.06s9.89-30,26.1-30c18.17,0,23,16,23,26.22a39.61,39.61,0,0,1-.34,4.72Zm29.67-7.25c.11-6.44-2.65-16.44-14-16.44-10.24,0-14.72,9.43-15.53,16.44Z" transform="translate(-560.91 -442.33)"/><path class="cls-3" d="M1682.33,1169.91v16h14.49v7.7h-14.49v30c0,6.9,2,10.81,7.59,10.81a22.69,22.69,0,0,0,5.86-.69l.46,7.59a24.86,24.86,0,0,1-9,1.38c-4.71,0-8.51-1.5-10.92-4.25-2.88-3-3.91-7.94-3.91-14.5V1193.6h-8.63v-7.7h8.63v-13.34Z" transform="translate(-560.91 -442.33)"/><path class="cls-3" d="M1708.2,1159.91h10.12v34.73h.23a18.69,18.69,0,0,1,7.25-7.13,20.77,20.77,0,0,1,10.35-2.88c7.47,0,19.43,4.6,19.43,23.81v33.12h-10.12v-32c0-9-3.33-16.56-12.88-16.56a14.54,14.54,0,0,0-13.57,10.12,12.33,12.33,0,0,0-.69,4.83v33.58H1708.2Z" transform="translate(-560.91 -442.33)"/><path class="cls-3" d="M1783.3,1170.26c.11,3.45-2.42,6.21-6.44,6.21a6,6,0,0,1-6.1-6.21,6.17,6.17,0,0,1,6.33-6.33A6,6,0,0,1,1783.3,1170.26Zm-11.27,71.3V1185.9h10.12v55.66Z" transform="translate(-560.91 -442.33)"/><path class="cls-3" d="M1798.93,1201c0-5.75-.11-10.46-.46-15.06h9l.57,9.2h.23c2.76-5.29,9.2-10.47,18.4-10.47,7.71,0,19.67,4.6,19.67,23.69v33.24H1836.2v-32.09c0-9-3.34-16.44-12.88-16.44a14.88,14.88,0,0,0-14.27,15.06v33.47h-10.12Z" transform="translate(-560.91 -442.33)"/><path class="cls-3" d="M1910.72,1185.9c-.23,4-.46,8.51-.46,15.29v32.32c0,12.77-2.53,20.59-7.94,25.42-5.4,5.06-13.23,6.67-20.24,6.67-6.67,0-14-1.61-18.52-4.6l2.53-7.71a31.39,31.39,0,0,0,16.33,4.37c10.36,0,17.95-5.41,17.95-19.44V1232h-.23c-3.11,5.18-9.09,9.32-17.72,9.32-13.8,0-23.69-11.73-23.69-27.14,0-18.86,12.31-29.56,25.07-29.56,9.66,0,15,5.06,17.37,9.66h.23l.46-8.39Zm-10.47,22a14.44,14.44,0,0,0-.57-4.6c-1.85-5.86-6.79-10.69-14.15-10.69-9.66,0-16.56,8.16-16.56,21,0,10.93,5.52,20,16.45,20a14.81,14.81,0,0,0,14-10.35,17.72,17.72,0,0,0,.8-5.4Z" transform="translate(-560.91 -442.33)"/><path class="cls-3" d="M1955.45,1185.9l7.36,28.29c1.61,6.21,3.1,12,4.14,17.71h.34c1.27-5.64,3.11-11.62,5-17.6l9.08-28.4h8.51l8.63,27.83c2.07,6.67,3.68,12.53,4.94,18.17h.35a167.35,167.35,0,0,1,4.25-18.06l7.94-27.94h10l-18,55.66h-9.2l-8.51-26.57a187.16,187.16,0,0,1-4.94-18.28h-.23a165.77,165.77,0,0,1-5.06,18.4l-9,26.45h-9.2l-16.79-55.66Z" transform="translate(-560.91 -442.33)"/><path class="cls-3" d="M2040.55,1215.57c.23,13.68,9,19.32,19.09,19.32a36.62,36.62,0,0,0,15.41-2.88l1.72,7.25c-3.56,1.61-9.66,3.45-18.51,3.45-17.14,0-27.37-11.27-27.37-28.06s9.89-30,26.1-30c18.17,0,23,16,23,26.22a39.61,39.61,0,0,1-.34,4.72Zm29.67-7.25c.11-6.44-2.65-16.44-14-16.44-10.24,0-14.72,9.43-15.53,16.44Z" transform="translate(-560.91 -442.33)"/><path class="cls-3" d="M2092.53,1201c0-5.75-.12-10.46-.46-15.06h9l.57,9.2h.23c2.76-5.29,9.2-10.47,18.4-10.47,7.71,0,19.67,4.6,19.67,23.69v33.24h-10.12v-32.09c0-9-3.34-16.44-12.88-16.44a14.37,14.37,0,0,0-13.57,10.35,14.52,14.52,0,0,0-.69,4.71v33.47h-10.12Z" transform="translate(-560.91 -442.33)"/><path class="cls-3" d="M2168.08,1169.91v16h14.49v7.7h-14.49v30c0,6.9,2,10.81,7.59,10.81a22.78,22.78,0,0,0,5.87-.69l.46,7.59a24.9,24.9,0,0,1-9,1.38c-4.72,0-8.52-1.5-10.93-4.25-2.88-3-3.91-7.94-3.91-14.5V1193.6h-8.63v-7.7h8.63v-13.34Z" transform="translate(-560.91 -442.33)"/><path class="cls-3" d="M2222.36,1185.9l7.36,28.29c1.61,6.21,3.1,12,4.14,17.71h.34c1.27-5.64,3.11-11.62,5-17.6l9.08-28.4h8.52l8.62,27.83c2.07,6.67,3.68,12.53,5,18.17h.34a167.53,167.53,0,0,1,4.26-18.06l7.93-27.94h10l-17.94,55.66h-9.21l-8.5-26.57a184.41,184.41,0,0,1-4.95-18.28H2252a165.77,165.77,0,0,1-5.06,18.4l-9,26.45h-9.2L2212,1185.9Z" transform="translate(-560.91 -442.33)"/><path class="cls-3" d="M2303,1203.26c0-6.55-.11-12.19-.46-17.36h8.86l.34,10.92h.46c2.53-7.47,8.63-12.19,15.41-12.19a11,11,0,0,1,2.88.35v9.54a15.25,15.25,0,0,0-3.45-.34c-7.13,0-12.19,5.4-13.57,13a28.49,28.49,0,0,0-.46,4.72v29.67h-10Z" transform="translate(-560.91 -442.33)"/><path class="cls-3" d="M2389.8,1213.27c0,20.58-14.26,29.56-27.72,29.56-15.06,0-26.68-11-26.68-28.64,0-18.63,12.19-29.56,27.6-29.56C2379,1184.63,2389.8,1196.25,2389.8,1213.27Zm-44.16.57c0,12.19,7,21.39,16.9,21.39,9.66,0,16.91-9.08,16.91-21.62,0-9.43-4.72-21.39-16.68-21.39S2345.64,1203.26,2345.64,1213.84Z" transform="translate(-560.91 -442.33)"/><path class="cls-3" d="M2402.56,1201c0-5.75-.11-10.46-.46-15.06h9l.58,9.2h.23c2.76-5.29,9.2-10.47,18.4-10.47,7.7,0,19.66,4.6,19.66,23.69v33.24h-10.12v-32.09c0-9-3.33-16.44-12.88-16.44a14.84,14.84,0,0,0-14.26,15.06v33.47h-10.12Z" transform="translate(-560.91 -442.33)"/><path class="cls-3" d="M2514.34,1185.9c-.23,4-.46,8.51-.46,15.29v32.32c0,12.77-2.53,20.59-7.93,25.42-5.41,5.06-13.23,6.67-20.24,6.67-6.67,0-14-1.61-18.52-4.6l2.53-7.71a31.39,31.39,0,0,0,16.33,4.37c10.35,0,17.94-5.41,17.94-19.44V1232h-.23c-3.1,5.18-9.08,9.32-17.71,9.32-13.8,0-23.69-11.73-23.69-27.14,0-18.86,12.31-29.56,25.07-29.56,9.66,0,15,5.06,17.37,9.66h.23l.46-8.39Zm-10.46,22a14.43,14.43,0,0,0-.58-4.6c-1.84-5.86-6.78-10.69-14.14-10.69-9.66,0-16.56,8.16-16.56,21,0,10.93,5.52,20,16.44,20a14.79,14.79,0,0,0,14-10.35,17.43,17.43,0,0,0,.81-5.4Z" transform="translate(-560.91 -442.33)"/><path class="cls-3" d="M2526.53,1235.58c0-4.26,2.88-7.25,6.9-7.25s6.79,3,6.79,7.25-2.65,7.25-6.9,7.25C2529.29,1242.83,2526.53,1239.72,2526.53,1235.58Z" transform="translate(-560.91 -442.33)"/></svg>