<svg id="Layer_1" data-name="Layer 1" xmlns="http://www.w3.org/2000/svg" xmlns:xlink="http://www.w3.org/1999/xlink" viewBox="0 0 3500 2000"><defs><style>.cls-1{fill:#f4f7fd;}.cls-2,.cls-3{fill:#cce6ff;}.cls-3{opacity:0.61;}.cls-4{fill:#fff;}.cls-5{clip-path:url(#clip-path);}.cls-11,.cls-12,.cls-13,.cls-6,.cls-9{fill:#3c94f8;}.cls-6{opacity:0.1;}.cls-7{clip-path:url(#clip-path-2);}.cls-8{fill:#102a54;}.cls-10{clip-path:url(#clip-path-3);}.cls-11{opacity:0.26;}.cls-12{opacity:0.18;}.cls-13{opacity:0.14;}.cls-14{fill:#6cb597;}.cls-15{fill:#ffc0b1;}.cls-16{fill:#0c203f;}.cls-17{fill:#7fc0ff;}</style><clipPath id="clip-path"><path class="cls-1" d="M416.57,1849.58h2640.8c80.59-183.69,112.62-388.43,86.36-587.3-13.55-102.52-43.93-207.43-114.88-282.65-45-47.68-103.71-80.54-164.88-104.11-150-57.81-320.09-62.07-472.83-11.83-100.41,33-201.51,89.58-305.13,68.74-45.15-9.08-86.12-32.45-124.15-58.41-203.31-138.78-358.95-365.92-599.49-418.2C1206.81,422,1041,472,911.53,564.63s-226.38,224.22-304.29,363C449.9,1208,369.91,1531.49,416.57,1849.58Z"/></clipPath><clipPath id="clip-path-2"><rect class="cls-2" x="912.63" y="290.14" width="1266.81" height="855.02" rx="23.92"/></clipPath><clipPath id="clip-path-3"><circle class="cls-3" cx="1403.21" cy="1085.32" r="231.99" transform="translate(-356.45 1310.1) rotate(-45)"/></clipPath></defs><title>login_image</title><rect class="cls-4" width="3500" height="2000"/><path class="cls-1" d="M2063.8,430.37a289.41,289.41,0,0,0-2,44.13c1.81,55,27.24,120.55,78.83,147.23,64.3,33.24,145.08-1.27,212.6,20.72,104.57,34.07,191.51,172.4,310.31,96.34,87.6-56.09,119.36-190.45,100.8-287.14-32.61-169.85-186.51-298.88-358.66-305.26-110.43-4.09-219.28,36.31-282.86,128.27C2092.16,318.94,2070.49,375.07,2063.8,430.37Z"/><path class="cls-1" d="M416.57,1849.58h2640.8c80.59-183.69,112.62-388.43,86.36-587.3-13.55-102.52-43.93-207.43-114.88-282.65-45-47.68-103.71-80.54-164.88-104.11-150-57.81-320.09-62.07-472.83-11.83-100.41,33-201.51,89.58-305.13,68.74-45.15-9.08-86.12-32.45-124.15-58.41-203.31-138.78-358.95-365.92-599.49-418.2C1206.81,422,1041,472,911.53,564.63s-226.38,224.22-304.29,363C449.9,1208,369.91,1531.49,416.57,1849.58Z"/><g class="cls-5"><path class="cls-6" d="M2636.57,1112c-133.29,82.45-243.15,196.9-353.77,307.92-68.29,68.53-140.5,138.2-231.66,170.59-67.64,24-141.11,25.74-212.79,21.94a1476.53,1476.53,0,0,1-366.08-66.43c-144.68-45.7-281.91-113.59-428.14-154.06-215.61-59.68-448-57.23-662.35,7-6.65,168.47-14.28,337.32-20.94,505.79,187.55,14.43,375.78-5.32,563.55-16.61,667.71-40.15,1336,26.61,2004,3.43,87.1-3,176.35-3.58,262.89-14.34,3.08-14.43,1.61-31.23,2-46q.69-25,1-50.1.63-50.1-.15-100.21-1.59-100.2-8.91-200.21-12.14-165.92-40-330.18c-5.09-29.94-10.81-60.06-21.58-88.55-6.88-18.2-15.67-42.32-36.08-48.91-18.15-5.86-41.24-4-60.13-5.9a498.3,498.3,0,0,0-88.08-.63C2831.68,1015.11,2727.88,1055.55,2636.57,1112Z"/></g><rect class="cls-2" x="912.63" y="290.14" width="1266.81" height="855.02" rx="23.92"/><g class="cls-7"><rect class="cls-8" x="850.3" y="241.53" width="1386.56" height="141.94"/></g><circle class="cls-9" cx="979.68" cy="340.77" r="17.33"/><circle class="cls-4" cx="1042.62" cy="340.77" r="17.33"/><circle class="cls-4" cx="1105.56" cy="340.77" r="17.33"/><path class="cls-8" d="M2139.13,1137H932.7a31.73,31.73,0,0,1-31.69-31.7V310.65A31.73,31.73,0,0,1,932.7,279H2139.13a31.73,31.73,0,0,1,31.69,31.69v794.63A31.73,31.73,0,0,1,2139.13,1137ZM932.7,282A28.72,28.72,0,0,0,904,310.65v794.63A28.73,28.73,0,0,0,932.7,1134H2139.13a28.73,28.73,0,0,0,28.69-28.7V310.65A28.72,28.72,0,0,0,2139.13,282Z"/><rect class="cls-1" x="968.93" y="459.98" width="341.06" height="602.41" rx="12.32"/><rect class="cls-2" x="989.54" y="487.71" width="132.6" height="169.12" rx="5.66"/><circle class="cls-2" cx="1156.01" cy="498.31" r="10.59"/><path class="cls-2" d="M1289.64,494.5H1188a2.26,2.26,0,0,1-2.26-2.26h0A2.26,2.26,0,0,1,1188,490h101.65a2.27,2.27,0,0,1,2.27,2.26h0A2.27,2.27,0,0,1,1289.64,494.5Z"/><path class="cls-2" d="M1289.64,506.63H1188a2.26,2.26,0,0,1-2.26-2.26h0a2.26,2.26,0,0,1,2.26-2.26h101.65a2.27,2.27,0,0,1,2.27,2.26h0A2.27,2.27,0,0,1,1289.64,506.63Z"/><path class="cls-2" d="M1289.64,518.76H1188a2.26,2.26,0,0,1-2.26-2.26h0a2.26,2.26,0,0,1,2.26-2.26h101.65a2.27,2.27,0,0,1,2.27,2.26h0A2.27,2.27,0,0,1,1289.64,518.76Z"/><circle class="cls-2" cx="1156.01" cy="542.36" r="10.59" transform="translate(408.53 1577.64) rotate(-79.3)"/><path class="cls-2" d="M1289.64,538.56H1188a2.26,2.26,0,0,1-2.26-2.26h0A2.27,2.27,0,0,1,1188,534h101.65a2.27,2.27,0,0,1,2.27,2.27h0A2.27,2.27,0,0,1,1289.64,538.56Z"/><path class="cls-2" d="M1289.64,550.69H1188a2.26,2.26,0,0,1-2.26-2.26h0a2.27,2.27,0,0,1,2.26-2.27h101.65a2.27,2.27,0,0,1,2.27,2.27h0A2.27,2.27,0,0,1,1289.64,550.69Z"/><path class="cls-2" d="M1289.64,562.82H1188a2.26,2.26,0,0,1-2.26-2.26h0a2.27,2.27,0,0,1,2.26-2.27h101.65a2.27,2.27,0,0,1,2.27,2.27h0A2.27,2.27,0,0,1,1289.64,562.82Z"/><circle class="cls-2" cx="1156.01" cy="586.42" r="10.59" transform="translate(365.24 1613.52) rotate(-79.3)"/><path class="cls-2" d="M1289.64,582.62H1188a2.27,2.27,0,0,1-2.26-2.27h0a2.26,2.26,0,0,1,2.26-2.26h101.65a2.27,2.27,0,0,1,2.27,2.26h0A2.27,2.27,0,0,1,1289.64,582.62Z"/><path class="cls-2" d="M1289.64,594.75H1188a2.27,2.27,0,0,1-2.26-2.27h0a2.26,2.26,0,0,1,2.26-2.26h101.65a2.27,2.27,0,0,1,2.27,2.26h0A2.27,2.27,0,0,1,1289.64,594.75Z"/><path class="cls-2" d="M1289.64,606.88H1188a2.27,2.27,0,0,1-2.26-2.27h0a2.26,2.26,0,0,1,2.26-2.26h101.65a2.27,2.27,0,0,1,2.27,2.26h0A2.27,2.27,0,0,1,1289.64,606.88Z"/><circle class="cls-2" cx="1156.01" cy="630.48" r="10.59" transform="translate(-160.01 674.65) rotate(-30.53)"/><path class="cls-2" d="M1289.64,626.67H1188a2.26,2.26,0,0,1-2.26-2.26h0a2.26,2.26,0,0,1,2.26-2.26h101.65a2.27,2.27,0,0,1,2.27,2.26h0A2.27,2.27,0,0,1,1289.64,626.67Z"/><path class="cls-2" d="M1289.64,638.8H1188a2.26,2.26,0,0,1-2.26-2.26h0a2.26,2.26,0,0,1,2.26-2.26h101.65a2.27,2.27,0,0,1,2.27,2.26h0A2.27,2.27,0,0,1,1289.64,638.8Z"/><path class="cls-2" d="M1289.64,650.93H1188a2.26,2.26,0,0,1-2.26-2.26h0a2.26,2.26,0,0,1,2.26-2.26h101.65a2.27,2.27,0,0,1,2.27,2.26h0A2.27,2.27,0,0,1,1289.64,650.93Z"/><rect class="cls-2" x="988.28" y="674.59" width="132.6" height="169.12" rx="5.66"/><circle class="cls-2" cx="1154.75" cy="685.18" r="10.59"/><path class="cls-2" d="M1288.38,681.38H1186.73a2.26,2.26,0,0,1-2.26-2.26h0a2.27,2.27,0,0,1,2.26-2.27h101.65a2.27,2.27,0,0,1,2.27,2.27h0A2.27,2.27,0,0,1,1288.38,681.38Z"/><path class="cls-2" d="M1288.38,693.51H1186.73a2.26,2.26,0,0,1-2.26-2.26h0a2.27,2.27,0,0,1,2.26-2.27h101.65a2.27,2.27,0,0,1,2.27,2.27h0A2.27,2.27,0,0,1,1288.38,693.51Z"/><path class="cls-2" d="M1288.38,705.64H1186.73a2.26,2.26,0,0,1-2.26-2.26h0a2.27,2.27,0,0,1,2.26-2.27h101.65a2.27,2.27,0,0,1,2.27,2.27h0A2.27,2.27,0,0,1,1288.38,705.64Z"/><circle class="cls-2" cx="1154.75" cy="729.24" r="10.59" transform="translate(180.73 1686.59) rotate(-76.78)"/><path class="cls-2" d="M1288.38,725.44H1186.73a2.27,2.27,0,0,1-2.26-2.27h0a2.26,2.26,0,0,1,2.26-2.26h101.65a2.27,2.27,0,0,1,2.27,2.26h0A2.27,2.27,0,0,1,1288.38,725.44Z"/><path class="cls-2" d="M1288.38,737.57H1186.73a2.27,2.27,0,0,1-2.26-2.27h0a2.26,2.26,0,0,1,2.26-2.26h101.65a2.27,2.27,0,0,1,2.27,2.26h0A2.27,2.27,0,0,1,1288.38,737.57Z"/><rect class="cls-2" x="1184.47" y="745.17" width="106.18" height="4.53" rx="2.26"/><circle class="cls-2" cx="1154.75" cy="773.29" r="10.59" transform="translate(137.85 1720.57) rotate(-76.78)"/><path class="cls-2" d="M1288.38,769.49H1186.73a2.26,2.26,0,0,1-2.26-2.26h0a2.26,2.26,0,0,1,2.26-2.26h101.65a2.27,2.27,0,0,1,2.27,2.26h0A2.27,2.27,0,0,1,1288.38,769.49Z"/><path class="cls-2" d="M1288.38,781.62H1186.73a2.26,2.26,0,0,1-2.26-2.26h0a2.26,2.26,0,0,1,2.26-2.26h101.65a2.27,2.27,0,0,1,2.27,2.26h0A2.27,2.27,0,0,1,1288.38,781.62Z"/><path class="cls-2" d="M1288.38,793.75H1186.73a2.26,2.26,0,0,1-2.26-2.26h0a2.26,2.26,0,0,1,2.26-2.26h101.65a2.27,2.27,0,0,1,2.27,2.26h0A2.27,2.27,0,0,1,1288.38,793.75Z"/><circle class="cls-2" cx="1154.75" cy="817.35" r="10.59" transform="translate(-239.74 1055.93) rotate(-45)"/><path class="cls-2" d="M1288.38,813.55H1186.73a2.26,2.26,0,0,1-2.26-2.26h0a2.27,2.27,0,0,1,2.26-2.27h101.65a2.27,2.27,0,0,1,2.27,2.27h0A2.27,2.27,0,0,1,1288.38,813.55Z"/><path class="cls-2" d="M1288.38,825.68H1186.73a2.26,2.26,0,0,1-2.26-2.26h0a2.27,2.27,0,0,1,2.26-2.27h101.65a2.27,2.27,0,0,1,2.27,2.27h0A2.27,2.27,0,0,1,1288.38,825.68Z"/><path class="cls-2" d="M1288.38,837.81H1186.73a2.26,2.26,0,0,1-2.26-2.26h0a2.27,2.27,0,0,1,2.26-2.27h101.65a2.27,2.27,0,0,1,2.27,2.27h0A2.27,2.27,0,0,1,1288.38,837.81Z"/><rect class="cls-2" x="987.02" y="861.47" width="132.6" height="169.12" rx="5.66"/><circle class="cls-2" cx="1153.49" cy="872.06" r="10.59"/><path class="cls-2" d="M1287.12,868.26H1185.47a2.27,2.27,0,0,1-2.27-2.27h0a2.27,2.27,0,0,1,2.27-2.26h101.65a2.27,2.27,0,0,1,2.27,2.26h0A2.27,2.27,0,0,1,1287.12,868.26Z"/><path class="cls-2" d="M1287.12,880.39H1185.47a2.27,2.27,0,0,1-2.27-2.27h0a2.27,2.27,0,0,1,2.27-2.26h101.65a2.27,2.27,0,0,1,2.27,2.26h0A2.27,2.27,0,0,1,1287.12,880.39Z"/><path class="cls-2" d="M1287.12,892.52H1185.47a2.27,2.27,0,0,1-2.27-2.27h0a2.27,2.27,0,0,1,2.27-2.26h101.65a2.27,2.27,0,0,1,2.27,2.26h0A2.27,2.27,0,0,1,1287.12,892.52Z"/><circle class="cls-2" cx="1153.49" cy="916.11" r="10.59" transform="translate(-2.16 1829.5) rotate(-76.78)"/><rect class="cls-2" x="1183.2" y="907.79" width="106.18" height="4.53" rx="2.26"/><path class="cls-2" d="M1287.12,924.44H1185.47a2.27,2.27,0,0,1-2.27-2.26h0a2.27,2.27,0,0,1,2.27-2.26h101.65a2.27,2.27,0,0,1,2.27,2.26h0A2.27,2.27,0,0,1,1287.12,924.44Z"/><path class="cls-2" d="M1287.12,936.57H1185.47a2.27,2.27,0,0,1-2.27-2.26h0a2.27,2.27,0,0,1,2.27-2.26h101.65a2.27,2.27,0,0,1,2.27,2.26h0A2.27,2.27,0,0,1,1287.12,936.57Z"/><circle class="cls-2" cx="1153.49" cy="960.17" r="10.59" transform="translate(-45.05 1863.48) rotate(-76.78)"/><path class="cls-2" d="M1287.12,956.37H1185.47a2.27,2.27,0,0,1-2.27-2.26h0a2.27,2.27,0,0,1,2.27-2.27h101.65a2.27,2.27,0,0,1,2.27,2.27h0A2.27,2.27,0,0,1,1287.12,956.37Z"/><path class="cls-2" d="M1287.12,968.5H1185.47a2.27,2.27,0,0,1-2.27-2.26h0a2.27,2.27,0,0,1,2.27-2.27h101.65a2.27,2.27,0,0,1,2.27,2.27h0A2.27,2.27,0,0,1,1287.12,968.5Z"/><path class="cls-2" d="M1287.12,980.63H1185.47a2.27,2.27,0,0,1-2.27-2.26h0a2.27,2.27,0,0,1,2.27-2.27h101.65a2.27,2.27,0,0,1,2.27,2.27h0A2.27,2.27,0,0,1,1287.12,980.63Z"/><circle class="cls-2" cx="1153.49" cy="1004.23" r="10.59" transform="translate(-372.25 1109.77) rotate(-45)"/><path class="cls-2" d="M1287.12,1000.43H1185.47a2.27,2.27,0,0,1-2.27-2.27h0a2.27,2.27,0,0,1,2.27-2.26h101.65a2.27,2.27,0,0,1,2.27,2.26h0A2.27,2.27,0,0,1,1287.12,1000.43Z"/><path class="cls-2" d="M1287.12,1012.56H1185.47a2.27,2.27,0,0,1-2.27-2.27h0a2.27,2.27,0,0,1,2.27-2.26h101.65a2.27,2.27,0,0,1,2.27,2.26h0A2.27,2.27,0,0,1,1287.12,1012.56Z"/><path class="cls-2" d="M1287.12,1024.69H1185.47a2.27,2.27,0,0,1-2.27-2.27h0a2.27,2.27,0,0,1,2.27-2.26h101.65a2.27,2.27,0,0,1,2.27,2.26h0A2.27,2.27,0,0,1,1287.12,1024.69Z"/><rect class="cls-1" x="1009.12" y="501.7" width="91.43" height="73.72" rx="4.72"/><rect class="cls-1" x="1009.12" y="586.42" width="91.43" height="6.07" rx="2.81"/><rect class="cls-1" x="1009.12" y="599.32" width="91.43" height="6.07" rx="2.81"/><rect class="cls-1" x="1009.12" y="612.22" width="91.43" height="6.07" rx="2.81"/><rect class="cls-1" x="1009.12" y="625.12" width="91.43" height="6.07" rx="2.81"/><rect class="cls-1" x="1009.12" y="638.02" width="91.43" height="6.07" rx="2.81"/><rect class="cls-1" x="1009.12" y="687.96" width="91.43" height="73.72" rx="4.72"/><rect class="cls-1" x="1009.12" y="772.68" width="91.43" height="6.07" rx="2.81"/><rect class="cls-1" x="1009.12" y="785.58" width="91.43" height="6.07" rx="2.81"/><rect class="cls-1" x="1009.12" y="798.48" width="91.43" height="6.07" rx="2.81"/><rect class="cls-1" x="1009.12" y="811.38" width="91.43" height="6.07" rx="2.81"/><rect class="cls-1" x="1009.12" y="824.28" width="91.43" height="6.07" rx="2.81"/><rect class="cls-1" x="1009.12" y="874.21" width="91.43" height="73.72" rx="4.72"/><rect class="cls-1" x="1009.12" y="958.93" width="91.43" height="6.07" rx="2.81"/><rect class="cls-1" x="1009.12" y="971.83" width="91.43" height="6.07" rx="2.81"/><rect class="cls-1" x="1009.12" y="984.73" width="91.43" height="6.07" rx="2.81"/><rect class="cls-1" x="1009.12" y="997.63" width="91.43" height="6.07" rx="2.81"/><rect class="cls-1" x="1009.12" y="1010.53" width="91.43" height="6.07" rx="2.81"/><rect class="cls-1" x="1761.84" y="459.98" width="341.06" height="602.41" rx="12.32"/><path class="cls-2" d="M2072.76,487.74h-99a3.27,3.27,0,0,1-3.27-3.27h0a3.26,3.26,0,0,1,3.27-3.27h99a3.27,3.27,0,0,1,3.28,3.27h0A3.28,3.28,0,0,1,2072.76,487.74Z"/><path class="cls-2" d="M2072.76,502.7h-99a3.27,3.27,0,0,1-3.27-3.27h0a3.27,3.27,0,0,1,3.27-3.28h99a3.28,3.28,0,0,1,3.28,3.28h0A3.28,3.28,0,0,1,2072.76,502.7Z"/><path class="cls-2" d="M2072.76,517.66h-99a3.27,3.27,0,0,1-3.27-3.28h0a3.27,3.27,0,0,1,3.27-3.27h99a3.28,3.28,0,0,1,3.28,3.27h0A3.28,3.28,0,0,1,2072.76,517.66Z"/><path class="cls-2" d="M2072.76,532.61h-99a3.26,3.26,0,0,1-3.27-3.27h0a3.27,3.27,0,0,1,3.27-3.27h99a3.28,3.28,0,0,1,3.28,3.27h0A3.27,3.27,0,0,1,2072.76,532.61Z"/><path class="cls-2" d="M2072.76,547.57h-99a3.26,3.26,0,0,1-3.27-3.27h0a3.27,3.27,0,0,1,3.27-3.27h99a3.28,3.28,0,0,1,3.28,3.27h0A3.27,3.27,0,0,1,2072.76,547.57Z"/><path class="cls-2" d="M2072.76,562.53h-99a3.26,3.26,0,0,1-3.27-3.27h0a3.27,3.27,0,0,1,3.27-3.27h99a3.28,3.28,0,0,1,3.28,3.27h0A3.27,3.27,0,0,1,2072.76,562.53Z"/><path class="cls-2" d="M2072.76,577.49h-99a3.26,3.26,0,0,1-3.27-3.27h0a3.27,3.27,0,0,1,3.27-3.27h99a3.28,3.28,0,0,1,3.28,3.27h0A3.27,3.27,0,0,1,2072.76,577.49Z"/><path class="cls-2" d="M2072.76,861.92h-99a3.26,3.26,0,0,1-3.27-3.27h0a3.27,3.27,0,0,1,3.27-3.27h99a3.28,3.28,0,0,1,3.28,3.27h0A3.27,3.27,0,0,1,2072.76,861.92Z"/><path class="cls-2" d="M2072.76,876.88h-99a3.26,3.26,0,0,1-3.27-3.27h0a3.27,3.27,0,0,1,3.27-3.27h99a3.28,3.28,0,0,1,3.28,3.27h0A3.27,3.27,0,0,1,2072.76,876.88Z"/><path class="cls-2" d="M2072.76,891.84h-99a3.26,3.26,0,0,1-3.27-3.27h0a3.26,3.26,0,0,1,3.27-3.27h99a3.27,3.27,0,0,1,3.28,3.27h0A3.27,3.27,0,0,1,2072.76,891.84Z"/><path class="cls-2" d="M2072.76,906.8h-99a3.26,3.26,0,0,1-3.27-3.27h0a3.26,3.26,0,0,1,3.27-3.27h99a3.27,3.27,0,0,1,3.28,3.27h0A3.27,3.27,0,0,1,2072.76,906.8Z"/><path class="cls-2" d="M2072.76,921.76h-99a3.26,3.26,0,0,1-3.27-3.27h0a3.26,3.26,0,0,1,3.27-3.27h99a3.27,3.27,0,0,1,3.28,3.27h0A3.27,3.27,0,0,1,2072.76,921.76Z"/><path class="cls-2" d="M2072.76,936.72h-99a3.26,3.26,0,0,1-3.27-3.27h0a3.26,3.26,0,0,1,3.27-3.27h99a3.27,3.27,0,0,1,3.28,3.27h0A3.27,3.27,0,0,1,2072.76,936.72Z"/><path class="cls-2" d="M2072.76,951.68h-99a3.26,3.26,0,0,1-3.27-3.27h0a3.26,3.26,0,0,1,3.27-3.27h99a3.27,3.27,0,0,1,3.28,3.27h0A3.27,3.27,0,0,1,2072.76,951.68Z"/><path class="cls-2" d="M2072.76,968.47h-99a3.26,3.26,0,0,1-3.27-3.27h0a3.27,3.27,0,0,1,3.27-3.27h99a3.28,3.28,0,0,1,3.28,3.27h0A3.27,3.27,0,0,1,2072.76,968.47Z"/><path class="cls-2" d="M2072.76,983.43h-99a3.26,3.26,0,0,1-3.27-3.27h0a3.26,3.26,0,0,1,3.27-3.27h99a3.27,3.27,0,0,1,3.28,3.27h0A3.27,3.27,0,0,1,2072.76,983.43Z"/><path class="cls-2" d="M2072.76,998.39h-99a3.26,3.26,0,0,1-3.27-3.27h0a3.26,3.26,0,0,1,3.27-3.27h99a3.27,3.27,0,0,1,3.28,3.27h0A3.27,3.27,0,0,1,2072.76,998.39Z"/><path class="cls-2" d="M2072.76,1013.35h-99a3.26,3.26,0,0,1-3.27-3.27h0a3.26,3.26,0,0,1,3.27-3.27h99a3.27,3.27,0,0,1,3.28,3.27h0A3.27,3.27,0,0,1,2072.76,1013.35Z"/><path class="cls-2" d="M2072.76,1028.31h-99a3.26,3.26,0,0,1-3.27-3.27h0a3.26,3.26,0,0,1,3.27-3.27h99A3.27,3.27,0,0,1,2076,1025h0A3.27,3.27,0,0,1,2072.76,1028.31Z"/><path class="cls-2" d="M2072.76,1043.27h-99a3.26,3.26,0,0,1-3.27-3.27h0a3.26,3.26,0,0,1,3.27-3.27h99A3.27,3.27,0,0,1,2076,1040h0A3.27,3.27,0,0,1,2072.76,1043.27Z"/><path class="cls-2" d="M2072.76,592.45h-99a3.26,3.26,0,0,1-3.27-3.27h0a3.27,3.27,0,0,1,3.27-3.27h99a3.28,3.28,0,0,1,3.28,3.27h0A3.27,3.27,0,0,1,2072.76,592.45Z"/><path class="cls-2" d="M2072.76,607.41h-99a3.26,3.26,0,0,1-3.27-3.27h0a3.27,3.27,0,0,1,3.27-3.27h99a3.28,3.28,0,0,1,3.28,3.27h0A3.27,3.27,0,0,1,2072.76,607.41Z"/><path class="cls-2" d="M2072.76,622.37h-99a3.26,3.26,0,0,1-3.27-3.27h0a3.26,3.26,0,0,1,3.27-3.27h99a3.27,3.27,0,0,1,3.28,3.27h0A3.27,3.27,0,0,1,2072.76,622.37Z"/><path class="cls-2" d="M2072.76,637.33h-99a3.26,3.26,0,0,1-3.27-3.27h0a3.26,3.26,0,0,1,3.27-3.27h99a3.27,3.27,0,0,1,3.28,3.27h0A3.27,3.27,0,0,1,2072.76,637.33Z"/><path class="cls-2" d="M2072.76,652.29h-99a3.26,3.26,0,0,1-3.27-3.27h0a3.26,3.26,0,0,1,3.27-3.27h99A3.27,3.27,0,0,1,2076,649h0A3.27,3.27,0,0,1,2072.76,652.29Z"/><rect class="cls-2" x="1970.51" y="660.71" width="105.53" height="6.54" rx="3.27"/><path class="cls-2" d="M2072.76,682.21h-99a3.27,3.27,0,0,1-3.27-3.27h0a3.26,3.26,0,0,1,3.27-3.27h99a3.27,3.27,0,0,1,3.28,3.27h0A3.28,3.28,0,0,1,2072.76,682.21Z"/><rect class="cls-2" x="1970.51" y="690.63" width="105.53" height="6.54" rx="3.27"/><path class="cls-2" d="M2072.76,712.13h-99a3.27,3.27,0,0,1-3.27-3.27h0a3.26,3.26,0,0,1,3.27-3.27h99a3.27,3.27,0,0,1,3.28,3.27h0A3.28,3.28,0,0,1,2072.76,712.13Z"/><path class="cls-2" d="M1939,746H1792a3.27,3.27,0,0,1-3.27-3.27h0a3.27,3.27,0,0,1,3.27-3.27h147a3.27,3.27,0,0,1,3.27,3.27h0A3.27,3.27,0,0,1,1939,746Z"/><path class="cls-2" d="M1939,761H1792a3.27,3.27,0,0,1-3.27-3.27h0a3.27,3.27,0,0,1,3.27-3.27h147a3.27,3.27,0,0,1,3.27,3.27h0A3.27,3.27,0,0,1,1939,761Z"/><path class="cls-2" d="M1939,775.93H1792a3.27,3.27,0,0,1-3.27-3.27h0a3.27,3.27,0,0,1,3.27-3.27h147a3.27,3.27,0,0,1,3.27,3.27h0A3.27,3.27,0,0,1,1939,775.93Z"/><path class="cls-2" d="M1939,790.89H1792a3.27,3.27,0,0,1-3.27-3.27h0a3.27,3.27,0,0,1,3.27-3.27h147a3.27,3.27,0,0,1,3.27,3.27h0A3.27,3.27,0,0,1,1939,790.89Z"/><path class="cls-2" d="M1939,805.85H1792a3.27,3.27,0,0,1-3.27-3.27h0a3.27,3.27,0,0,1,3.27-3.27h147a3.27,3.27,0,0,1,3.27,3.27h0A3.27,3.27,0,0,1,1939,805.85Z"/><path class="cls-2" d="M1939,820.81H1792a3.28,3.28,0,0,1-3.27-3.27h0a3.27,3.27,0,0,1,3.27-3.27h147a3.27,3.27,0,0,1,3.27,3.27h0A3.28,3.28,0,0,1,1939,820.81Z"/><path class="cls-2" d="M1939,835.77H1792a3.28,3.28,0,0,1-3.27-3.27h0a3.27,3.27,0,0,1,3.27-3.27h147a3.27,3.27,0,0,1,3.27,3.27h0A3.28,3.28,0,0,1,1939,835.77Z"/><path class="cls-2" d="M1939,850.73H1792a3.28,3.28,0,0,1-3.27-3.27h0a3.27,3.27,0,0,1,3.27-3.27h147a3.27,3.27,0,0,1,3.27,3.27h0A3.28,3.28,0,0,1,1939,850.73Z"/><path class="cls-2" d="M1939,865.69H1792a3.28,3.28,0,0,1-3.27-3.27h0a3.27,3.27,0,0,1,3.27-3.27h147a3.27,3.27,0,0,1,3.27,3.27h0A3.28,3.28,0,0,1,1939,865.69Z"/><path class="cls-2" d="M1939,880.65H1792a3.28,3.28,0,0,1-3.27-3.27h0a3.27,3.27,0,0,1,3.27-3.27h147a3.27,3.27,0,0,1,3.27,3.27h0A3.28,3.28,0,0,1,1939,880.65Z"/><path class="cls-2" d="M1939,895.61H1792a3.28,3.28,0,0,1-3.27-3.27h0a3.28,3.28,0,0,1,3.27-3.28h147a3.28,3.28,0,0,1,3.27,3.28h0A3.28,3.28,0,0,1,1939,895.61Z"/><path class="cls-2" d="M1939,910.57H1792a3.28,3.28,0,0,1-3.27-3.28h0A3.28,3.28,0,0,1,1792,904h147a3.28,3.28,0,0,1,3.27,3.27h0A3.28,3.28,0,0,1,1939,910.57Z"/><path class="cls-2" d="M1939,925.52H1792a3.27,3.27,0,0,1-3.27-3.27h0A3.28,3.28,0,0,1,1792,919h147a3.28,3.28,0,0,1,3.27,3.27h0A3.27,3.27,0,0,1,1939,925.52Z"/><path class="cls-2" d="M1939,940.48H1792a3.27,3.27,0,0,1-3.27-3.27h0a3.28,3.28,0,0,1,3.27-3.27h147a3.28,3.28,0,0,1,3.27,3.27h0A3.27,3.27,0,0,1,1939,940.48Z"/><path class="cls-2" d="M1939,955.44H1792a3.27,3.27,0,0,1-3.27-3.27h0a3.28,3.28,0,0,1,3.27-3.27h147a3.28,3.28,0,0,1,3.27,3.27h0A3.27,3.27,0,0,1,1939,955.44Z"/><path class="cls-2" d="M1939,970.4H1792a3.27,3.27,0,0,1-3.27-3.27h0a3.28,3.28,0,0,1,3.27-3.27h147a3.28,3.28,0,0,1,3.27,3.27h0A3.27,3.27,0,0,1,1939,970.4Z"/><path class="cls-2" d="M1939,984.38H1792a3.28,3.28,0,0,1-3.27-3.28h0a3.28,3.28,0,0,1,3.27-3.27h147a3.28,3.28,0,0,1,3.27,3.27h0A3.28,3.28,0,0,1,1939,984.38Z"/><path class="cls-2" d="M1939,999.33H1792a3.27,3.27,0,0,1-3.27-3.27h0a3.28,3.28,0,0,1,3.27-3.27h147a3.28,3.28,0,0,1,3.27,3.27h0A3.27,3.27,0,0,1,1939,999.33Z"/><path class="cls-2" d="M1939,1014.29H1792a3.27,3.27,0,0,1-3.27-3.27h0a3.28,3.28,0,0,1,3.27-3.27h147a3.28,3.28,0,0,1,3.27,3.27h0A3.27,3.27,0,0,1,1939,1014.29Z"/><path class="cls-2" d="M1939,1029.25H1792a3.27,3.27,0,0,1-3.27-3.27h0a3.28,3.28,0,0,1,3.27-3.27h147a3.28,3.28,0,0,1,3.27,3.27h0A3.27,3.27,0,0,1,1939,1029.25Z"/><path class="cls-2" d="M1939,1044.21H1792a3.27,3.27,0,0,1-3.27-3.27h0a3.28,3.28,0,0,1,3.27-3.27h147a3.28,3.28,0,0,1,3.27,3.27h0A3.27,3.27,0,0,1,1939,1044.21Z"/><rect class="cls-2" x="1970.51" y="738.65" width="105.53" height="97.93" rx="2.8"/><rect class="cls-2" x="1788.7" y="481.2" width="153.54" height="230.93" rx="3.78"/><rect class="cls-1" x="1803.14" y="495.59" width="124.66" height="66.95" rx="2.28"/><rect class="cls-1" x="1803.14" y="570.67" width="124.66" height="66.95" rx="2.28"/><rect class="cls-1" x="1803.14" y="645.75" width="58.68" height="55.58" rx="1.98"/><rect class="cls-1" x="1867.69" y="645.75" width="60.11" height="55.58" rx="2.01"/><rect class="cls-1" x="1365.39" y="459.98" width="341.06" height="602.41" rx="12.32"/><rect class="cls-2" x="1392.42" y="487.74" width="134.41" height="134.41" rx="5.68"/><rect class="cls-2" x="1581.72" y="487.74" width="101.32" height="8.17" rx="2.97"/><rect class="cls-2" x="1581.72" y="501.98" width="101.32" height="8.17" rx="2.97"/><rect class="cls-2" x="1581.72" y="516.22" width="101.32" height="8.17" rx="2.97"/><rect class="cls-2" x="1581.72" y="530.47" width="101.32" height="8.17" rx="2.97"/><rect class="cls-2" x="1581.72" y="544.71" width="101.32" height="8.17" rx="2.97"/><rect class="cls-2" x="1581.72" y="558.96" width="101.32" height="8.17" rx="2.97"/><rect class="cls-2" x="1581.72" y="573.2" width="101.32" height="8.17" rx="2.97"/><rect class="cls-2" x="1581.72" y="587.45" width="101.32" height="8.17" rx="2.97"/><rect class="cls-2" x="1581.72" y="601.69" width="101.32" height="8.17" rx="2.97"/><rect class="cls-2" x="1581.72" y="615.93" width="101.32" height="8.17" rx="2.97"/><circle class="cls-2" cx="1552.49" cy="500.89" r="7.12"/><circle class="cls-2" cx="1552.49" cy="556.9" r="7.12"/><path class="cls-2" d="M1559.62,612.9a7.13,7.13,0,1,1-7.13-7.13A7.13,7.13,0,0,1,1559.62,612.9Z"/><rect class="cls-2" x="1392.42" y="644.09" width="290.61" height="16.62"/><rect class="cls-2" x="1392.42" y="672.91" width="290.61" height="16.62"/><rect class="cls-2" x="1392.42" y="701.74" width="152.95" height="16.62"/><rect class="cls-2" x="1392.42" y="739.83" width="290.61" height="9.87" rx="2.21"/><rect class="cls-2" x="1392.42" y="760.03" width="290.61" height="9.87" rx="2.21"/><rect class="cls-2" x="1392.42" y="780.24" width="290.61" height="9.87" rx="2.21"/><rect class="cls-2" x="1392.42" y="800.44" width="290.61" height="9.87" rx="2.21"/><rect class="cls-2" x="1392.42" y="820.64" width="290.61" height="9.87" rx="2.21"/><rect class="cls-2" x="1392.42" y="840.85" width="290.61" height="9.87" rx="2.21"/><rect class="cls-2" x="1392.42" y="861.05" width="147.04" height="9.87" rx="1.57"/><rect class="cls-2" x="1392.42" y="900.26" width="86.01" height="90.54" rx="7.93"/><rect class="cls-2" x="1494.72" y="899.87" width="86.01" height="90.54" rx="7.93"/><rect class="cls-2" x="1597.02" y="899.48" width="86.01" height="90.54" rx="7.93"/><rect class="cls-2" x="1392.42" y="1008.03" width="290.61" height="8.57" rx="1.3"/><rect class="cls-2" x="1392.42" y="1024.03" width="290.61" height="8.57" rx="1.3"/><rect class="cls-2" x="1392.42" y="1040.02" width="173.82" height="8.57" rx="1.01"/><rect class="cls-9" x="788.06" y="538.86" width="249.14" height="171.1" rx="11.39"/><path class="cls-8" d="M1005.9,752.25a4.64,4.64,0,0,1-3.69-1.84l-34.52-45.08H792.86A12.9,12.9,0,0,1,780,692.45V544.12a12.91,12.91,0,0,1,12.89-12.89h226.36a12.91,12.91,0,0,1,12.89,12.89V692.45a12.91,12.91,0,0,1-12.89,12.88h-8.6v42.23a4.64,4.64,0,0,1-3.18,4.44A4.87,4.87,0,0,1,1005.9,752.25Zm-213-218a9.9,9.9,0,0,0-9.89,9.89V692.45a9.89,9.89,0,0,0,9.89,9.88H969.17l35.42,46.25a1.69,1.69,0,0,0,3-1V702.33h11.6a9.9,9.9,0,0,0,9.89-9.88V544.12a9.91,9.91,0,0,0-9.89-9.89Z"/><rect class="cls-9" x="1314.15" y="237.88" width="249.14" height="171.1" rx="11.39"/><path class="cls-8" d="M1532,451.28a4.62,4.62,0,0,1-3.68-1.85l-34.53-45.07H1319a12.9,12.9,0,0,1-12.89-12.89V243.15A12.9,12.9,0,0,1,1319,230.26h226.36a12.9,12.9,0,0,1,12.89,12.89V391.47a12.9,12.9,0,0,1-12.89,12.89h-8.6v42.22a4.64,4.64,0,0,1-3.18,4.44A4.88,4.88,0,0,1,1532,451.28Zm-213-218a9.91,9.91,0,0,0-9.89,9.89V391.47a9.91,9.91,0,0,0,9.89,9.89h176.31l35.43,46.25a1.68,1.68,0,0,0,3-1V401.36h11.6a9.91,9.91,0,0,0,9.89-9.89V243.15a9.91,9.91,0,0,0-9.89-9.89Z"/><rect class="cls-9" x="2030.77" y="332.49" width="249.14" height="171.1" rx="11.39" transform="translate(4310.69 836.08) rotate(180)"/><path class="cls-8" d="M2062.08,545.88a4.87,4.87,0,0,1-1.54-.25,4.62,4.62,0,0,1-3.18-4.44V499h-8.6a12.91,12.91,0,0,1-12.89-12.89V337.76a12.9,12.9,0,0,1,12.89-12.89h226.36A12.9,12.9,0,0,1,2288,337.76V486.08A12.91,12.91,0,0,1,2275.12,499H2100.29L2065.76,544A4.61,4.61,0,0,1,2062.08,545.88Zm-13.32-218a9.89,9.89,0,0,0-9.89,9.89V486.08a9.9,9.9,0,0,0,9.89,9.89h11.6v45.22a1.68,1.68,0,0,0,3,1L2098.8,496h176.32a9.91,9.91,0,0,0,9.89-9.89V337.76a9.9,9.9,0,0,0-9.89-9.89Z"/><path class="cls-8" d="M1644.12,1214.88a273.37,273.37,0,1,0-405.86,77.87,14.23,14.23,0,0,0-11.53,7.07l-197.18,340.8a14.23,14.23,0,0,0,5.19,19.44l53.83,31.14A14.21,14.21,0,0,0,1108,1686l197.19-340.8a14.22,14.22,0,0,0,.39-13.52,273.48,273.48,0,0,0,338.54-116.82Zm-355,67.7a236.41,236.41,0,1,1,179.36,23.78A234.88,234.88,0,0,1,1289.08,1282.58Z"/><circle class="cls-4" cx="1403.21" cy="1085.32" r="231.99" transform="translate(-356.45 1310.1) rotate(-45)"/><circle class="cls-3" cx="1403.21" cy="1085.32" r="231.99" transform="translate(-356.45 1310.1) rotate(-45)"/><g class="cls-10"><polygon class="cls-11" points="1514.95 855.26 1126.2 1018.14 1132.4 1130.4 1614.54 941.38 1514.95 855.26"/><polygon class="cls-12" points="1679.49 956.34 1158.23 1165.06 1205.08 1259.52 1715.64 1059.36 1679.49 956.34"/><polygon class="cls-6" points="1721.26 1089.91 1200 1298.63 1243.1 1348.21 1743.12 1152.22 1721.26 1089.91"/></g><path class="cls-13" d="M1666.26,1238.87a273.37,273.37,0,1,0-405.86,77.87,14.22,14.22,0,0,0-11.52,7.08l-197.19,340.79a14.23,14.23,0,0,0,5.19,19.44l53.83,31.15a14.23,14.23,0,0,0,19.44-5.19l197.18-340.8a14.17,14.17,0,0,0,.39-13.51,273.5,273.5,0,0,0,338.54-116.83Zm-355,67.7a236.42,236.42,0,1,1,179.37,23.78A234.83,234.83,0,0,1,1311.22,1306.57Z"/><rect class="cls-1" x="1711.84" y="679.97" width="970.38" height="195.95" rx="97.98"/><path class="cls-8" d="M2570.56,874.44H1796.14a101,101,0,1,1,0-202h774.42a101,101,0,1,1,0,202Zm-774.42-196a95,95,0,1,0,0,190h774.42a95,95,0,1,0,0-190Z"/><rect class="cls-8" x="1797.75" y="759.37" width="20.04" height="20.04" rx="5.34"/><rect class="cls-8" x="1832.89" y="759.37" width="20.04" height="20.04" rx="5.34"/><rect class="cls-8" x="1868.02" y="759.37" width="20.04" height="20.04" rx="5.34"/><rect class="cls-8" x="1903.15" y="759.37" width="20.04" height="20.04" rx="5.34"/><rect class="cls-8" x="1938.29" y="759.37" width="20.04" height="20.04" rx="5.34"/><rect class="cls-8" x="1973.42" y="759.37" width="20.04" height="20.04" rx="5.34"/><rect class="cls-8" x="2008.56" y="759.37" width="20.04" height="20.04" rx="5.34"/><rect class="cls-8" x="2043.69" y="759.37" width="20.04" height="20.04" rx="5.34"/><rect class="cls-8" x="2078.83" y="759.37" width="20.04" height="20.04" rx="5.34"/><rect class="cls-8" x="2113.96" y="759.37" width="20.04" height="20.04" rx="5.34"/><rect class="cls-8" x="2149.1" y="759.37" width="20.04" height="20.04" rx="5.34"/><rect class="cls-8" x="2184.23" y="759.37" width="20.04" height="20.04" rx="5.34"/><rect class="cls-8" x="2219.37" y="759.37" width="20.04" height="20.04" rx="5.34"/><rect class="cls-8" x="2254.5" y="759.37" width="20.04" height="20.04" rx="5.34"/><rect class="cls-8" x="2289.64" y="759.37" width="20.04" height="20.04" rx="5.34"/><rect class="cls-8" x="2324.77" y="759.37" width="20.04" height="20.04" rx="5.34"/><rect class="cls-8" x="2359.91" y="759.37" width="20.04" height="20.04" rx="5.34"/><rect class="cls-8" x="2395.04" y="759.37" width="20.04" height="20.04" rx="5.34"/><rect class="cls-8" x="2430.18" y="759.37" width="20.04" height="20.04" rx="5.34"/><rect class="cls-8" x="2465.31" y="759.37" width="20.04" height="20.04" rx="5.34"/><rect class="cls-8" x="2500.45" y="759.37" width="20.04" height="20.04" rx="5.34"/><rect class="cls-8" x="2535.58" y="759.37" width="20.04" height="20.04" rx="5.34"/><rect class="cls-8" x="2570.72" y="759.37" width="20.04" height="20.04" rx="5.34"/><path class="cls-8" d="M762.8,1722H685.28a5.17,5.17,0,0,0-4.95,6.66l33.91,113.26a5.18,5.18,0,0,0,5,3.69h65.59a5.18,5.18,0,0,0,5-3.69l33.91-113.26a5.17,5.17,0,0,0-4.95-6.66Z"/><path class="cls-14" d="M806.62,1666.79c2.14-5.63,4.9-11.25,9.51-15.13s11.47-5.59,16.8-2.78c3.92,2.06,8,6.43,11.84,4.27,2.41-1.34,2.94-4.52,3.11-7.27.53-9,.42-19.07,6.81-25.39s16.49-6.09,25.06-3.9c4,1,8.52,2.39,12.21.42a12.73,12.73,0,0,0,4.54-4.81c4.11-6.72,6.72-15.32,13.9-18.52,11.57-5.16,25.06,7.89,37,3.54,4.66-1.7,8.64-6,13.57-5.51a10.38,10.38,0,0,1,6.32,3.42c5.74,6,5.8,16.57.09,22.6-7.59,8-21.53,6.9-29.2,14.84-7.38,7.63-6.77,21.46-15.77,27.08-7.58,4.73-17.81.85-26.24,3.83-6.76,2.4-11.17,8.72-15.55,14.4s-9.94,11.46-17.1,11.91c-3.76.23-7.5-1.08-11.25-.74-10.78,1-16.79,14.62-27.5,16.24-7.19,1.08-13.35-3.71-18.32-8.27a14.15,14.15,0,0,1-4.54-6.51c-.85-3.18-.14-6.63.57-9.77A103.1,103.1,0,0,1,806.62,1666.79Z"/><path class="cls-14" d="M729.26,1644.44c-5.87-4.37-9.43-12.79-6-19.23,1.69-3.14,4.71-5.31,7.09-8s4.21-6.45,2.8-9.73a11.74,11.74,0,0,0-3.42-4c-4.81-4.17-9.69-8.51-12.72-14.11s-3.89-12.81-.54-18.23c2.53-4.09,7-6.52,10.8-9.41s7.48-7,7.16-11.82c-.4-6-6.85-11.42-4.45-16.91,2.48-5.7,12.4-5.38,14-11.38.81-3-1-6-1.73-9a13.23,13.23,0,0,1,25.61-6.63c1.24,4.59,0,9.7,1.8,14.1,2.36,5.7,9.12,8.43,12.08,13.85,5.45,10-4.45,21.78-3.62,33.12.88,12,13.68,22.17,10.38,33.72-1.29,4.53-4.93,8.11-6.19,12.64-1.5,5.41.61,11.06,2.12,16.47s2.23,11.81-1.4,16.09c-2.68,3.17-7,4.29-11.15,4.93a73.73,73.73,0,0,1-33.69-2.19A29.93,29.93,0,0,1,729.26,1644.44Z"/><path class="cls-8" d="M751.73,1750.47a1.54,1.54,0,0,1-.77-.21,1.46,1.46,0,0,1-.46-2A188,188,0,0,1,789,1703.77c16.66-14,35.72-25.12,54.15-35.83l125.17-72.79a1.45,1.45,0,0,1,1.46,2.51l-125.17,72.78c-18.33,10.66-37.27,21.67-53.74,35.55a185.19,185.19,0,0,0-37.95,43.8A1.44,1.44,0,0,1,751.73,1750.47Z"/><path class="cls-8" d="M755.75,1744.3a1.45,1.45,0,0,1-1.45-1.41c-2.14-72.79-.54-172.72,1.18-243.73a1.45,1.45,0,1,1,2.9.07c-1.72,71-3.32,170.85-1.18,243.57a1.47,1.47,0,0,1-1.41,1.5Z"/><path class="cls-14" d="M683.57,1705c-8.45-.91-17-6.51-18.54-14.88-1.22-6.67,1.52-15.26-4-19.18-2-1.37-4.44-1.66-6.82-1.77-8.59-.41-18,.71-25-4.26-10.22-7.24-9.2-22.25-10-34.75-.22-3.2-.75-6.67-3.07-8.89-2.48-2.38-6.22-2.64-9.57-3.4-12.2-2.76-21.73-14.55-21.86-27.06,0-3.83.81-7.84,3.35-10.7a14.51,14.51,0,0,1,6.61-4,22.09,22.09,0,0,1,22.61,6.48c3.4,3.91,5.35,9,9.18,12.49,10.82,9.87,28.59,1.76,42.51,6.32a24.25,24.25,0,0,1,15.8,17.38c1.55,6.93,0,14.64,3.43,20.88,5.83,10.72,21.1,10.12,32.36,14.83,2.7,1.14,5.36,2.74,6.89,5.24a14.81,14.81,0,0,1,1.79,6.51,38.71,38.71,0,0,1-7.56,25.8c-2.43,3.3-5.67,7.12-9.51,8.8-2.92,1.27-6.35.81-9.42,1.55C696.3,1704,690.2,1705.76,683.57,1705Z"/><path class="cls-8" d="M748.09,1752.56a1.45,1.45,0,0,1-1.28-.77c-20-37.45-63.37-86.91-84.2-110.69-6.25-7.12-12.7-14.49-20.22-20.43-6.19-4.89-13.32-9-20.21-13-12.65-7.29-25.73-14.84-33.51-27.47a1.45,1.45,0,1,1,2.47-1.52c7.39,12,19.58,19,32.49,26.48,7,4,14.21,8.2,20.56,13.21,7.72,6.11,14.27,13.58,20.6,20.8,20.9,23.85,64.4,73.49,84.58,111.23a1.44,1.44,0,0,1-.6,2A1.38,1.38,0,0,1,748.09,1752.56Z"/><path class="cls-9" d="M2511,1039.32s-65.88,123.5-76.46,133.46-159.86,51-159.86,51l5.89,21.63s184.93,4.29,194.35,0,63.7-52.48,63.7-52.48Z"/><polygon class="cls-15" points="2419.99 1780.14 2424.51 1807.28 2458.84 1807.28 2456.86 1776.2 2419.99 1780.14"/><polygon class="cls-15" points="2296.51 1774.67 2298.4 1811.62 2329.04 1809.26 2333.59 1774.95 2296.51 1774.67"/><path class="cls-16" d="M2562,1328s-218,73-250.55,105.5S2291.86,1776,2291.86,1776h46.63l65.65-255.06s264.28-5.87,292.85-56.05c37.68-66.2,8.91-152.39,8.91-152.39Z"/><path class="cls-8" d="M2575.36,1345.19S2394,1450.79,2371,1485.86s45.65,294.64,45.65,294.64l42.47-4.54L2470,1546.79s235.07-54.19,251.3-104.33c21.42-66.13-20.26-137.82-20.26-137.82Z"/><path class="cls-16" d="M2334.17,1802.08s-27.76,7.71-40.62,0l-55.6,29a22.83,22.83,0,0,0-12.25,20.23v.59h109.41a5.41,5.41,0,0,0,5.36-6.18Z"/><path class="cls-8" d="M2460.35,1802.08s-27.75,7.71-40.61,0l-55.6,29a22.83,22.83,0,0,0-12.25,20.23v.59H2461.3a5.41,5.41,0,0,0,5.36-6.18Z"/><path class="cls-15" d="M2564.43,1006.3,2543.49,921h0c0-16.08-3.18-35.31-11.18-57.84a27,27,0,0,0-36.73-15.46L2455,866.3a25.37,25.37,0,0,0-14.09,29.06c3.42,14,7.5,32.23,8.81,44.42,1.13,10.66,4.08,23.07,11.11,32.3,12.29,16.15,33.95,21.63,51.77,13.46l5.06,55.35Z"/><path class="cls-8" d="M2464.1,934.44a5.05,5.05,0,0,1-3.48-1.38,5.13,5.13,0,0,1-1.63-4.27l3.24-33.13a1.17,1.17,0,0,1,2.32.22L2461.32,929a2.81,2.81,0,0,0,3.28,3l10.09-1.76a1.17,1.17,0,1,1,.4,2.3L2465,934.36A5.47,5.47,0,0,1,2464.1,934.44Z"/><path class="cls-4" d="M2488.74,934.37s-12.33,11.22-28.1,15.21C2460.64,949.58,2483.54,963.56,2488.74,934.37Z"/><path class="cls-8" d="M2469.42,947.72a1.16,1.16,0,0,1-1.08-.72,1.17,1.17,0,0,1,.63-1.53,58.09,58.09,0,0,0,19.8-13.54,1.17,1.17,0,1,1,1.76,1.54,59.48,59.48,0,0,1-20.67,14.16A1.12,1.12,0,0,1,2469.42,947.72Z"/><path class="cls-8" d="M2455.65,902c0,2.78-1.82,5-4.06,5s-4.05-2.25-4.05-5,1.82-5,4.05-5S2455.65,899.24,2455.65,902Z"/><ellipse class="cls-8" cx="2478.74" cy="893.76" rx="4.05" ry="5.03"/><path class="cls-8" d="M2440.18,883.78s44.86,3.76,64.49-11.28c0,0,.41,29.83,7.51,34.54s28.87-.08,35.66,30.06c0,0,11.95-32.86,6.52-71.28s-29.65-56.8-53-54.71S2391.68,845.24,2440.18,883.78Z"/><ellipse class="cls-15" cx="2525.07" cy="896.98" rx="20.85" ry="12.23" transform="translate(1065.18 3144.05) rotate(-76.55)"/><path class="cls-8" d="M2519.6,905.58a1.16,1.16,0,0,1-1.16-1.11c-.64-13.22,9.93-24,10.38-24.48a1.17,1.17,0,0,1,1.66,1.64c-.1.11-10.29,10.55-9.71,22.72a1.17,1.17,0,0,1-1.11,1.23Z"/><path class="cls-9" d="M2564.46,993.64s129.92,54.82,153.67,337.88c0,0-56,34-193.06,14.24,0,0,3.67-30.57,2.39-43.14s-42-204.5-16.49-263.3Z"/><path class="cls-8" d="M2512.59,986.71a1.17,1.17,0,0,1-.45-2.24c.18-.08,13.12-5.83,20.54-26a1.17,1.17,0,1,1,2.19.8c-7.81,21.27-21.26,27.15-21.83,27.39A1.17,1.17,0,0,1,2512.59,986.71Z"/><path class="cls-9" d="M2561.12,1059.65S2520.3,1164.1,2508.2,1180s-196.56,45.92-196.56,45.92l10.9,30s189.19,10.9,212.27,0,74.88-48.17,89.42-100.87S2607.05,1036,2561.12,1059.65Z"/><path class="cls-8" d="M2469,1262c-61.06,0-141.48-4.58-146.57-4.87a1.16,1.16,0,0,1-1.09-1.23,1.15,1.15,0,0,1,1.23-1.1c1.89.11,189.15,10.76,211.7.11,19.57-9.24,73.66-45.25,88.8-100.12a1.17,1.17,0,1,1,2.25.62c-15.38,55.72-70.21,92.24-90.05,101.61C2527.41,1260.72,2500.85,1262,2469,1262Z"/><path class="cls-8" d="M2311.64,1227.11a1.17,1.17,0,0,1-.19-2.32c63.64-10.35,186.47-33.17,195.82-45.47,11.86-15.62,52.35-119.06,52.76-120.1a1.17,1.17,0,0,1,2.18.85c-1.67,4.27-41,104.79-53.08,120.66-12.24,16.11-189.75,45.13-197.31,46.36Z"/><path class="cls-8" d="M2512.59,1174a1.17,1.17,0,0,1-1.17-1.11c0-.82-3.85-82.18,0-113.39a1.17,1.17,0,0,1,2.32.29c-3.84,31,0,112.17,0,113a1.17,1.17,0,0,1-1.11,1.22Z"/><path class="cls-15" d="M2315.05,1231s-22.27-5.16-32-1.35c-3.5,1.37-42.79,33.09-42.79,33.09h58.05l22.46-11.57Z"/><path class="cls-15" d="M2275.84,1228.22s-18.55-1.4-24.57,0-36.88,15.49-36.88,17.24,3.14,4.16,7.23,3.19,38.81-10.41,38.81-10.41-19.77,9.69-22.66,13.79a64.54,64.54,0,0,0-5.54,10.68h36.39l11.92-17.25Z"/><path class="cls-8" d="M2241.81,1263.71a1,1,0,0,1-.3,0,1,1,0,0,1-.65-1.25,19.47,19.47,0,0,1,4.68-7.18c3.4-3.4,30.06-21.7,31.2-22.48a1,1,0,0,1,1.13,1.65c-.28.19-27.65,19-30.91,22.24a17.46,17.46,0,0,0-4.19,6.36A1,1,0,0,1,2241.81,1263.71Z"/><polygon class="cls-8" points="2611.15 1534.94 2534.81 1851.94 2541.15 1851.94 2638.39 1533.24 2611.15 1534.94"/><polygon class="cls-8" points="2718.38 1534.94 2794.72 1851.94 2788.38 1851.94 2691.14 1533.24 2718.38 1534.94"/><path class="cls-17" d="M2544.41,1522.07s112.08-56.42,165.47-140.82c28-44.27,31.28-160,54.4-161.82s44.46,35.57,51.57,76.47,7.11,198-44.46,226.17-229.89,40.57-242.09,35.23S2513,1540.19,2544.41,1522.07Z"/><path class="cls-17" d="M2593.54,1294.36h-793a9,9,0,0,1-9-9h0a9.05,9.05,0,0,1,9-9h793a9.05,9.05,0,0,1,9.05,9h0A9,9,0,0,1,2593.54,1294.36Z"/><polygon class="cls-17" points="1847 1851.94 1832.99 1851.94 1940.82 1294.36 1954.83 1294.36 1847 1851.94"/><polygon class="cls-17" points="2547.11 1851.94 2561.12 1851.94 2453.28 1294.36 2439.28 1294.36 2547.11 1851.94"/><path class="cls-8" d="M2089,1262.71l-91.64-213.85a6,6,0,0,0-5.51-3.63h0a6,6,0,0,0-5.51,8.36l95.42,222.67h226.54a6.77,6.77,0,0,0,6.78-6.77h0a6.77,6.77,0,0,0-6.78-6.78Z"/><path class="cls-8" d="M3243.27,1853.58H264a4,4,0,1,1,0-8H3243.27a4,4,0,1,1,0,8Z"/></svg>